<svg xmlns="http://www.w3.org/2000/svg" xmlns:xlink="http://www.w3.org/1999/xlink" viewBox="0 0 155.63396 179.71062">
  <defs>
    <linearGradient id="c">
      <stop offset="0" stop-color="#c93d39"/>
      <stop offset="1" stop-color="#fff" stop-opacity="0"/>
    </linearGradient>
    <linearGradient id="b">
      <stop offset="0" stop-color="#3b972e"/>
      <stop offset="1" stop-color="#fff" stop-opacity="0"/>
    </linearGradient>
    <linearGradient id="a">
      <stop offset="0" stop-color="#945bb0"/>
      <stop offset="1" stop-color="#fff" stop-opacity="0"/>
    </linearGradient>
    <radialGradient xlink:href="#a" id="f" gradientUnits="userSpaceOnUse" gradientTransform="matrix(.0142 -1.5297 1.71535 .01591 -1033.5146 1628.7627)" cx="414.02301" cy="687.40204" fx="414.02301" fy="687.40204" r="86.830666"/>
    <radialGradient xlink:href="#b" id="d" gradientUnits="userSpaceOnUse" gradientTransform="matrix(-1.26566 1.227 -1.1253 -1.16075 1436.5452 1012.4852)" cx="499.3504" cy="645.45337" fx="499.3504" fy="645.45337" r="86.830666"/>
    <radialGradient xlink:href="#c" id="e" gradientUnits="userSpaceOnUse" gradientTransform="matrix(1.72341 -.00186 .00163 1.51192 -998.84418 55.629146)" cx="580.789" cy="628.65375" fx="580.789" fy="628.65375" r="86.830666"/>
  </defs>
  <g transform="translate(2.4e-7 -872.65159)">
    <path d="M155.1753 1007.1697l-77.358322 44.6629-77.35831755-44.6629 3.9e-7-89.32565L77.816979 873.18121l77.358321 44.66284z" fill="#fff"/>
    <text style="line-height:125%" x="124.75384" y="841.2403" font-weight="400" font-size="40" font-family="sans-serif" letter-spacing="0" word-spacing="0"/>
    <path d="M152.82938 1005.652l-75.072644 43.3432-75.072645-43.3432 4e-7-86.68644 75.0726456-43.34321 75.072643 43.34322z" fill="none" stroke="url(#d)" stroke-width="4.45108843"/>
    <path d="M152.82938 1005.652l-75.072644 43.3432-75.072645-43.3432 4e-7-86.68644 75.0726456-43.34321 75.072643 43.34322z" fill="none" stroke="url(#e)" stroke-width="4.45108843"/>
    <path d="M152.82938 1005.652l-75.072644 43.3432-75.072645-43.3432 4e-7-86.68644 75.0726456-43.34321 75.072643 43.34322z" fill="none" stroke="url(#f)" stroke-width="4.45108843"/>
    <path d="M155.1753 1007.1697l-77.358322 44.6629-77.35831755-44.6629 3.9e-7-89.32565L77.816979 873.18121l77.358321 44.66284z" fill="none" stroke="#3e3e3e" stroke-width=".91732138"/>
    <path style="line-height:125%;-inkscape-font-specification:'Comfortaa, Normal';text-align:start" d="M34.951511 911.69438q0-.40129.259655-.66094.28326-.25966.66094-.25966.401285 0 .66094.25966.259655.25965.259655.66094v16.59431q0 .37768-.259655.66094-.259655.25966-.66094.25966-.37768 0-.66094-.25966-.259655-.28326-.259655-.66094v-16.59431zM47.375856 916.15572q1.675955 0 2.997835.70815 1.345485.70815 2.100845 2.07724.75536 1.34549.75536 3.23389v6.1373q0 .37768-.259655.63733-.259655.25966-.637335.25966-.401285 0-.66094-.25966-.259655-.25965-.259655-.63733v-6.1373q0-2.10085-1.18025-3.18668-1.156645-1.10943-3.045045-1.10943-1.156645 0-2.100845.44849-.920595.4485-1.46351 1.25107-.542915.77896-.542915 1.74677v6.98708q0 .40128-.259655.66094-.23605.23605-.637335.23605t-.66094-.23605q-.259655-.25966-.259655-.66094v-11.09435q0-.40129.259655-.66094.259655-.25966.66094-.25966.401285 0 .637335.25966.259655.25965.259655.66094v.80257q.778965-.87339 1.8884-1.36909 1.109435-.49571 2.40771-.49571zM62.902783 927.3917q.37768 0 .61373.25966.23605.25965.23605.66094 0 .37768-.28326.63733-.28326.25966-.70815.25966h-.495705q-1.251066 0-2.242476-.59013-.99141-.61373-1.55793-1.62874-.542915-1.03862-.542915-2.3369v-6.30253h-1.534325q-.37768 0-.61373-.21245-.212445-.23605-.212445-.56652 0-.35407.212445-.56652.23605-.23605.61373-.23605h1.534325v-3.65877q0-.40129.23605-.66094.259655-.25966.66094-.25966.401285 0 .66094.25966.259655.25965.259655.66094v3.65877h2.667366q.37768 0 .590125.23605.23605.21245.23605.56652 0 .33047-.23605.56652-.212445.21245-.590125.21245h-2.667366v6.30253q0 1.20386.70815 1.98282.708151.75536 1.817586.75536h.637335zM72.165164 916.17933q1.74677 0 3.092255.82617 1.345485.80257 2.07724 2.24248.75536 1.4399.75536 3.28109 0 .37768-.23605.61373-.23605.21245-.61373.21245h-9.53642q.18884 1.93561 1.51072 3.13946 1.32188 1.20386 3.3047 1.20386.84978 0 1.69956-.28326.873385-.30687 1.392695-.75536.306865-.23605.637335-.23605.259655 0 .51931.18884.306865.28326.306865.63733 0 .30687-.259655.54292-.778965.66094-1.98282 1.10943-1.203855.42489-2.31329.42489-1.8884 0-3.375515-.82617-1.487115-.84978-2.336895-2.3369-.826175-1.51072-.826175-3.39912 0-1.912.778965-3.39912.80257-1.51072 2.195265-2.33689 1.4163-.84978 3.21028-.84978zm0 1.62874q-1.79398 0-2.97423 1.10944-1.18025 1.10943-1.439905 2.92702h8.63943q-.18884-1.81759-1.32188-2.92702-1.13304-1.10944-2.903415-1.10944zM86.972139 916.15572q.99141 0 1.55793.25966.590125.25965.590125.73175 0 .14163-.02361.21245-.09442.33047-.306865.44849-.18884.11803-.542915.11803-.212445 0-.731755-.0472-.18884-.0236-.56652-.0236-1.770375 0-2.903415.9442-1.109435.9442-1.109435 2.45492v7.0579q0 .42489-.23605.66094-.23605.23605-.66094.23605t-.66094-.23605q-.23605-.23605-.23605-.66094v-11.11796q0-.42489.23605-.66094.23605-.23605.66094-.23605t.66094.23605q.23605.23605.23605.66094v1.03862q.684545-.99141 1.74677-1.53432 1.062225-.54292 2.289685-.54292zM101.98566 916.36817q.4957.23605.4957.75536 0 .14163-.0708.33047l-5.169497 11.14156q-.306865.61373-.89699.61373-.56652 0-.849781-.61373l-5.24031-11.11796q-.07082-.14163-.07082-.33047 0-.4957.51931-.75536.165235-.0944.37768-.0944.23605 0 .42489.11803.212445.11802.306865.35407l4.532161 9.81968 4.484952-9.81968q.0944-.23605.30687-.35407.21244-.14163.4721-.14163.21244 0 .37768.0944zM110.39383 916.17933q1.84119 0 3.32831.87338 1.51072.84978 2.3605 2.3605.87338 1.51072.87338 3.35191v5.54718q0 .37768-.25965.63733-.25966.25966-.66094.25966-.40129 0-.66094-.23605-.25966-.25966-.25966-.66094v-1.4163q-.82617 1.13304-2.10084 1.79398-1.27467.63733-2.809.63733-1.79398 0-3.25749-.84978-1.4399-.87338-2.28968-2.3605-.82618-1.51072-.82618-3.35191t.84978-3.35191q.87339-1.51072 2.3605-2.3605 1.51072-.87338 3.35191-.87338zm0 11.49563q1.34549 0 2.43132-.63733 1.08583-.63734 1.69956-1.74677.63733-1.13304.63733-2.52574 0-1.39269-.63733-2.50213-.61373-1.13304-1.69956-1.77037-1.08583-.66094-2.43132-.66094-1.34548 0-2.45492.66094-1.08583.63733-1.72316 1.77037-.61373 1.10944-.61373 2.50213 0 1.3927.61373 2.52574.63733 1.10943 1.72316 1.74677 1.10944.63733 2.45492.63733zM119.99591 911.67077q0-.40128.25965-.63733.25966-.25966.63734-.25966.40128 0 .63733.25966.25966.23605.25966.63733v13.45485q0 1.01502.40128 1.65235.42489.63734 1.06223.63734h.59012q.35408 0 .56652.25965.21245.23605.21245.63734 0 .40128-.30687.66094-.28326.23605-.75536.23605h-.30686q-1.43991 0-2.3605-1.13304-.89699-1.15665-.89699-2.95063v-13.45485zM59.980417 932.36259q.37768 0 .61373.23605.23605.23605.23605.61373 0 .35407-.23605.59012-.23605.23605-.61373.23605h-5.617991v15.83896q0 .37768-.259655.66094-.259655.25966-.66094.25966-.37768 0-.66094-.25966-.259655-.28326-.259655-.66094v-15.83896h-5.594385q-.37768 0-.61373-.23605-.23605-.23605-.23605-.59012 0-.37768.23605-.61373.23605-.23605.61373-.23605h13.053566zM65.84921 937.74453q.99141 0 1.55793.25965.590125.25966.590125.73176 0 .14163-.02361.21244-.09442.33047-.306865.4485-.18884.11803-.542915.11803-.212445 0-.731755-.0472-.18884-.0236-.56652-.0236-1.770375 0-2.903415.9442-1.109435.9442-1.109435 2.45492v7.0579q0 .42489-.23605.66094-.23605.23605-.660941.23605-.42489 0-.66094-.23605-.23605-.23605-.23605-.66094v-11.11796q0-.42489.23605-.66094.23605-.23605.66094-.23605.424891 0 .660941.23605.23605.23605.23605.66094v1.03862q.684545-.99141 1.74677-1.53433 1.062225-.54291 2.289685-.54291zM75.384893 937.76813q1.74677 0 3.092255.82618 1.345485.80257 2.07724 2.24248.75536 1.4399.75536 3.28109 0 .37768-.23605.61373-.23605.21245-.61373.21245h-9.536421q.18884 1.93561 1.51072 3.13946 1.32188 1.20386 3.304701 1.20386.84978 0 1.69956-.28326.873385-.30687 1.392695-.75536.306865-.23605.637335-.23605.259655 0 .51931.18884.306865.28326.306865.63733 0 .30687-.259655.54292-.778965.66094-1.98282 1.10943-1.203855.42489-2.31329.42489-1.888401 0-3.375516-.82617-1.487115-.84978-2.336895-2.3369-.826175-1.51072-.826175-3.39912 0-1.912.778965-3.39912.80257-1.51072 2.195265-2.3369 1.4163-.84978 3.210281-.84978zm0 1.62875q-1.793981 0-2.974231 1.10944-1.18025 1.10943-1.439905 2.92702h8.639431q-.18884-1.81759-1.32188-2.92702-1.13304-1.10944-2.903415-1.10944zM89.400363 937.76813q1.74677 0 3.092255.82618 1.345485.80257 2.07724 2.24248.75536 1.4399.75536 3.28109 0 .37768-.23605.61373-.23605.21245-.61373.21245h-9.53642q.18884 1.93561 1.51072 3.13946 1.32188 1.20386 3.3047 1.20386.84978 0 1.69956-.28326.873385-.30687 1.392695-.75536.306865-.23605.637335-.23605.259655 0 .51931.18884.306865.28326.306865.63733 0 .30687-.259655.54292-.778965.66094-1.98282 1.10943-1.203855.42489-2.31329.42489-1.8884 0-3.375515-.82617-1.487115-.84978-2.336895-2.3369-.826175-1.51072-.826175-3.39912 0-1.912.778965-3.39912.80257-1.51072 2.195265-2.3369 1.4163-.84978 3.21028-.84978zm0 1.62875q-1.79398 0-2.97423 1.10944-1.18025 1.10943-1.439905 2.92702h8.63943q-.18884-1.81759-1.32188-2.92702-1.13304-1.10944-2.903415-1.10944zM102.83825 937.76813q1.55793 0 2.71457.54292 1.15665.51931 1.8648 1.46351.18884.30687.18884.54292 0 .40128-.37768.63733-.16524.11803-.4485.11803-.4957 0-.82617-.35408-1.15665-1.32188-3.16307-1.32188-1.29828 0-2.07724.54292-.778967.51931-.778967 1.32188 0 .84978.731757 1.36909.73175.4957 2.59655.80257 2.52573.42489 3.61156 1.39269 1.08583.9442 1.08583 2.3605 0 1.08583-.66094 1.93561-.63733.84978-1.79398 1.32188-1.15664.4721-2.62015.4721-1.46351 0-2.809-.4957-1.345482-.49571-2.171657-1.3927-.23605-.28326-.23605-.54291 0-.40129.37768-.70815.28326-.21245.590125-.21245.401285 0 .684545.33047.56652.66094 1.487117 1.01502.9442.35407 2.07724.35407 1.65235 0 2.47852-.56652.82618-.56652.84978-1.48711 0-.84978-.82617-1.4163-.82618-.56652-2.62016-.84978-2.31329-.37768-3.469932-1.29828-1.13304-.9442-1.13304-2.26608 0-1.72316 1.32188-2.66737 1.345482-.9442 3.351912-.9442z" font-weight="400" font-family="Comfortaa" letter-spacing="0" word-spacing="0" fill="#1a1a1a"/>
    <ellipse cx="79.317528" cy="959.24261" rx="1.8537644" ry="1.853763" fill="#1a1a1a" stroke="#161616" stroke-width=".48297149"/>
    <ellipse cx="132.21173" cy="994.0105" rx="1.8537645" ry="1.853763" fill="#1a1a1a" stroke="#161616" stroke-width=".48297149"/>
    <ellipse cx="97.186722" cy="994.0105" rx="1.8537645" ry="1.853763" fill="#1a1a1a" stroke="#161616" stroke-width=".48297149"/>
    <ellipse cx="62.161636" cy="994.0105" rx="1.8537645" ry="1.853763" fill="#1a1a1a" stroke="#161616" stroke-width=".48297149"/>
    <ellipse cx="27.136564" cy="994.0105" rx="1.8537645" ry="1.853763" fill="#1a1a1a" stroke="#161616" stroke-width=".48297149"/>
    <ellipse cx="114.69922" cy="976.49786" rx="1.8537645" ry="1.853763" fill="#1a1a1a" stroke="#161616" stroke-width=".48297149"/>
    <ellipse cx="44.649101" cy="976.49786" rx="1.8537645" ry="1.853763" fill="#1a1a1a" stroke="#161616" stroke-width=".48297149"/>
    <path d="M79.142547 960.1423l-33.148733 15.9489-18.137986 16.8871M80.176344 960.1427l33.148696 15.9489 18.13805 16.88715M44.430195 976.40392L61.63001 993.9165M115.02436 976.40359l-17.199796 17.51258" fill="none" stroke="#000" stroke-width="2"/>
    <path d="M26.907318 1002.4187h35.652881" fill="#9558b2" fill-rule="evenodd" stroke="#9558b2" stroke-width="5" stroke-linecap="round"/>
    <path d="M95.67013 1002.3188h35.96452" fill="#389826" fill-rule="evenodd" stroke="#389826" stroke-width="5" stroke-linecap="round"/>
    <path d="M26.782606 1009.7883h70.225059" fill="#4063d8" fill-rule="evenodd" stroke="#4063d8" stroke-width="5" stroke-linecap="round"/>
    <path d="M61.843137 1017.506h35.225081" fill="#cb3c33" fill-rule="evenodd" stroke="#cb3c33" stroke-width="5" stroke-linecap="round"/>
  </g>
</svg>
